<svg xmlns="http://www.w3.org/2000/svg" version="1.1" xmlns:xlink="http://www.w3.org/1999/xlink" xmlns:svgjs="http://svgjs.dev/svgjs" width="34" height="34"><svg viewBox="0 0 34 34" fill="none" xmlns="http://www.w3.org/2000/svg">
    <mask id="SvgjsMask1060" style="mask-type: luminance" maskUnits="userSpaceOnUse" x="0" y="0" width="34" height="34">
        <path d="M34 0H0V34H34V0Z" fill="white"></path>
    </mask>
    <g mask="url(#mask0_534_243)">
        <path d="M20.6755 8.51653L18.323 2.33657C18.1716 1.93886 17.8476 1.67783 17.4749 1.6032L14.4453 0.689213C14.175 0.601933 13.8694 0.616743 13.581 0.754293L6.74818 4.01339C6.11924 4.31338 5.81034 5.08451 6.05824 5.73575L8.75145 12.8108C8.99936 13.462 8.69046 14.2331 8.06151 14.5331L1.22866 17.7922C0.599716 18.0922 0.290819 18.8633 0.538722 19.5146L3.23193 26.5896C3.40319 27.0395 3.79539 27.3145 4.2289 27.3426L7.05034 28.2158C7.33625 28.3262 7.66432 28.3196 7.97391 28.1719L13.5808 25.4975L15.9333 31.6775C16.0717 32.041 16.3543 32.2904 16.6864 32.3876V32.3889L19.7553 33.3051C20.0529 33.4188 20.3887 33.3965 20.6753 33.2598L27.5081 30.0007C28.1371 29.7007 28.446 28.9296 28.1981 28.2784L25.5049 21.2033C25.257 20.5521 25.5659 19.781 26.1948 19.481L33.0277 16.2219C33.6566 15.9219 33.9655 15.1507 33.7176 14.4995L31.0244 7.42453C30.8788 7.04193 30.5735 6.7859 30.2189 6.70049L27.1337 5.7727C26.8666 5.69003 26.5662 5.70685 26.2824 5.84221L20.6755 8.51653Z" fill="#6351AD"></path>
        <path d="M15.1687 1.39017C14.9208 0.738927 14.21 0.454177 13.581 0.754177L6.74818 4.01328C6.11924 4.31327 5.81034 5.0844 6.05824 5.73564L8.75145 12.8107C8.99936 13.4619 8.69046 14.233 8.06151 14.533L1.22866 17.7921C0.599716 18.0921 0.290819 18.8633 0.538722 19.5145L3.23193 26.5895C3.47983 27.2408 4.19066 27.5255 4.81961 27.2255L11.6524 23.9664C12.2814 23.6664 12.9922 23.9512 13.2401 24.6024L15.9333 31.6775C16.1812 32.3287 16.8921 32.6134 17.521 32.3135L24.3539 29.0544C24.9828 28.7544 25.2917 27.9832 25.0438 27.332L22.3506 20.2569C22.1027 19.6057 22.4116 18.8346 23.0405 18.5346L29.8734 15.2755C30.5023 14.9755 30.8112 14.2044 30.5633 13.5531L27.8701 6.47809C27.6222 5.82685 26.9114 5.5421 26.2824 5.8421L19.4496 9.1012C18.8206 9.4012 18.1098 9.1164 17.8619 8.4652L15.1687 1.39017Z" fill="url(#paint0_linear_534_243)"></path>
        <path d="M10.6922 5.31791L10.1462 9.71692C10.0849 10.2105 10.5432 10.5625 10.9774 10.3554L14.736 8.56272C15.1702 8.35562 15.2608 7.74172 14.9003 7.44932L11.6877 4.84308C11.3168 4.54221 10.7552 4.81009 10.6922 5.31791Z" fill="url(#paint1_linear_534_243)"></path>
        <path d="M19.4126 28.2252L16.2 25.619C15.8395 25.3266 15.9301 24.7127 16.3643 24.5056L20.1229 22.7129C20.5571 22.5058 21.0154 22.8578 20.9541 23.3514L20.4081 27.7504C20.3451 28.2582 19.7835 28.5261 19.4126 28.2252Z" fill="url(#paint2_linear_534_243)"></path>
        <path d="M8.80826 22.6571L4.68476 22.3247C4.20874 22.2863 3.98738 21.7048 4.29238 21.2939L6.93439 17.7345C7.23081 17.3351 7.80539 17.3968 7.97652 17.8464L9.458 21.7382C9.62913 22.1878 9.27089 22.6944 8.80826 22.6571Z" fill="url(#paint3_linear_534_243)"></path>
        <path d="M26.8106 11.7733L24.1686 15.3327C23.8722 15.7321 23.2976 15.6704 23.1265 15.2208L21.645 11.329C21.4739 10.8794 21.8321 10.3728 22.2947 10.4101L26.4182 10.7425C26.8943 10.7809 27.1156 11.3624 26.8106 11.7733Z" fill="url(#paint4_linear_534_243)"></path>
    </g>
    <defs>
        <linearGradient id="SvgjsLinearGradient1059" x1="17.7904" y1="-4.03068" x2="6.9081" y2="37.2906" gradientUnits="userSpaceOnUse">
            <stop stop-color="#C2B8FF"></stop>
            <stop offset="1" stop-color="#995AFF"></stop>
        </linearGradient>
        <linearGradient id="SvgjsLinearGradient1058" x1="15.4394" y1="-1.45982" x2="15.4394" y2="34.6963" gradientUnits="userSpaceOnUse">
            <stop stop-color="#A670FF"></stop>
            <stop offset="1" stop-color="#543CB5"></stop>
        </linearGradient>
        <linearGradient id="SvgjsLinearGradient1057" x1="15.4399" y1="-1.45979" x2="15.4399" y2="34.6964" gradientUnits="userSpaceOnUse">
            <stop stop-color="#A670FF"></stop>
            <stop offset="1" stop-color="#543CB5"></stop>
        </linearGradient>
        <linearGradient id="SvgjsLinearGradient1056" x1="15.4396" y1="-1.46075" x2="15.4396" y2="34.6954" gradientUnits="userSpaceOnUse">
            <stop stop-color="#A670FF"></stop>
            <stop offset="1" stop-color="#543CB5"></stop>
        </linearGradient>
        <linearGradient id="SvgjsLinearGradient1055" x1="15.4424" y1="-1.45989" x2="15.4424" y2="34.6963" gradientUnits="userSpaceOnUse">
            <stop stop-color="#A670FF"></stop>
            <stop offset="1" stop-color="#543CB5"></stop>
        </linearGradient>
    </defs>
</svg><style>@media (prefers-color-scheme: light) { :root { filter: none; } }
@media (prefers-color-scheme: dark) { :root { filter: none; } }
</style></svg>